<?xml version="1.0" standalone="no"?>
<!DOCTYPE svg PUBLIC "-//W3C//DTD SVG 20010904//EN"
 "http://www.w3.org/TR/2001/REC-SVG-20010904/DTD/svg10.dtd">
<svg version="1.0" xmlns="http://www.w3.org/2000/svg"
 width="399.000000pt" height="399.000000pt" viewBox="0 0 399.000000 399.000000"
 preserveAspectRatio="xMidYMid meet">
<metadata>
Created by potrace 1.11, written by Peter Selinger 2001-2013
</metadata>
<g transform="translate(0.000000,399.000000) scale(0.100000,-0.100000)"
fill="#000000" stroke="none">
<path d="M429 3813 c-7 -42 -3 -442 4 -457 21 -42 28 9 29 203 1 175 4 201 17
202 9 0 83 2 164 2 119 2 150 5 157 17 5 8 8 20 7 25 -4 12 -376 19 -378 8z"/>
<path d="M3152 3793 l3 -28 165 -1 165 -1 3 -199 c2 -216 4 -233 26 -215 11 9
13 57 12 239 l-1 227 -188 3 -188 2 3 -27z"/>
<path d="M1927 3764 c-1 -1 -38 -4 -82 -7 -68 -5 -206 -26 -280 -41 -11 -2
-76 -23 -144 -45 -228 -77 -439 -205 -618 -375 -41 -38 -43 -39 -62 -22 -19
18 -22 16 -95 -57 -87 -88 -97 -110 -65 -136 l22 -18 -26 -35 c-15 -19 -27
-40 -27 -46 0 -7 -8 -13 -17 -14 -10 0 -22 -2 -28 -3 -5 -2 -15 -3 -21 -4 -52
-5 -197 -383 -218 -571 -3 -19 -7 -52 -11 -73 -16 -94 -6 -393 15 -477 8 -32
15 -64 25 -115 7 -35 13 -60 15 -60 1 0 3 -7 5 -15 12 -51 70 -198 99 -247
176 -309 218 -368 375 -523 175 -173 398 -314 611 -386 47 -15 87 -30 89 -31
14 -10 -20 -17 -92 -19 -140 -3 -271 -15 -337 -31 -24 -6 -23 -6 10 -15 44
-11 78 -15 177 -23 43 -3 94 -7 113 -10 35 -4 883 -20 950 -17 32 1 122 8 213
16 43 4 52 -18 14 -34 -19 -8 -17 -9 13 -6 19 2 48 9 63 15 16 6 33 9 38 5 5
-3 9 0 9 6 0 6 5 8 10 5 6 -3 16 -3 23 2 6 4 18 8 25 9 8 2 21 6 30 10 9 4 20
8 25 9 4 2 8 3 10 5 1 1 11 3 22 5 11 2 30 15 41 29 12 14 24 23 26 20 3 -2
17 10 33 26 16 17 36 30 46 30 9 0 22 7 29 15 7 8 16 13 20 10 4 -3 11 2 14
10 3 9 16 20 28 25 22 8 22 9 -4 7 -15 -1 -25 -4 -23 -7 2 -4 -11 -13 -30 -20
-19 -8 -35 -16 -35 -20 0 -3 -13 -14 -30 -23 -16 -10 -30 -15 -30 -12 0 4 -7
-1 -16 -9 -8 -9 -20 -14 -25 -11 -5 4 -9 2 -9 -3 0 -12 -77 -32 -121 -32 -26
0 -30 3 -26 19 4 17 2 18 -42 4 -25 -7 -62 -12 -81 -9 -19 3 -50 5 -68 6 -19
0 -32 5 -30 10 2 6 52 30 111 54 60 25 113 49 120 54 7 6 40 25 75 44 113 60
246 161 358 273 123 123 197 217 273 351 28 49 54 95 58 102 4 7 16 14 26 16
17 2 54 62 62 100 3 11 8 22 12 25 5 3 10 13 12 21 14 61 47 156 55 162 6 4 8
8 4 8 -4 0 -1 21 7 48 7 26 16 63 19 82 3 19 8 46 11 60 26 128 26 387 -2 565
-2 17 -6 41 -7 55 -2 22 -8 25 -44 26 -47 1 -50 2 -55 30 -2 10 -10 39 -17 64
-8 25 -14 48 -16 53 -1 4 -3 9 -4 12 -1 3 -3 8 -5 13 -1 4 -8 21 -15 37 -7 17
-14 32 -15 35 -5 21 -51 110 -57 110 -5 0 -8 8 -8 18 0 21 -107 185 -175 268
-44 55 -45 57 -29 82 9 13 11 21 5 18 -6 -4 -11 -3 -11 3 0 6 -15 26 -34 45
-19 19 -32 37 -28 41 4 4 2 5 -3 3 -6 -2 -33 18 -60 44 -81 77 -94 88 -103 88
-5 0 -15 11 -22 25 -7 14 -16 25 -19 25 -3 0 -19 11 -35 25 l-30 25 -19 -30
c-22 -35 -22 -35 -62 -10 -159 99 -379 178 -585 211 -61 9 -287 27 -293 23z"/>
<path d="M2950 3661 c0 -5 5 -13 10 -16 6 -3 10 -2 10 4 0 5 -4 13 -10 16 -5
3 -10 2 -10 -4z"/>
<path d="M640 3400 c-36 -36 -80 -83 -99 -105 -54 -65 -175 -254 -218 -340
-65 -130 -133 -318 -148 -410 -4 -22 -11 -53 -16 -70 -4 -16 -11 -52 -14 -80
-3 -27 -7 -66 -10 -85 -7 -48 -7 -323 -1 -352 3 -13 8 -43 10 -68 3 -25 7 -56
11 -70 3 -14 8 -38 10 -55 7 -41 65 -244 75 -264 5 -9 18 -43 31 -76 19 -52
56 -121 145 -274 12 -20 38 -55 58 -78 20 -23 36 -45 36 -51 0 -5 25 -32 55
-61 30 -29 55 -49 55 -45 0 4 6 -1 14 -12 13 -16 17 -17 28 -5 9 10 9 12 1 7
-7 -4 -13 -3 -13 1 0 5 -16 26 -35 46 -19 20 -33 37 -30 37 3 0 -4 11 -17 25
-39 41 -53 59 -53 68 0 4 -7 12 -15 17 -8 5 -11 10 -5 10 5 0 -1 7 -13 16 -12
8 -20 20 -17 25 4 5 1 9 -5 9 -6 0 -16 13 -21 30 -6 16 -15 30 -20 30 -5 0 -9
9 -9 20 0 11 -4 20 -9 20 -8 0 -15 18 -27 65 -1 6 -19 53 -39 105 -50 128 -88
248 -101 315 -2 11 -6 31 -10 45 -3 14 -7 36 -9 50 -2 14 -7 43 -10 65 -11 65
-14 376 -5 435 5 30 11 74 14 98 3 24 11 62 17 85 6 23 13 50 15 59 2 10 6 26
8 36 10 46 63 187 106 282 26 58 55 125 65 149 11 24 32 57 49 75 57 61 158
189 166 212 5 13 14 24 20 24 5 0 10 6 10 13 0 19 35 49 45 40 4 -5 5 -2 1 5
-4 6 -3 12 1 12 5 0 9 8 9 18 0 31 -18 21 -86 -48z"/>
<path d="M3550 3017 c0 -8 103 -233 110 -240 4 -5 10 -5 13 0 4 5 -14 51 -38
101 -25 50 -45 96 -45 102 0 6 -7 13 -15 16 -8 4 -12 10 -9 15 3 5 0 9 -5 9
-6 0 -11 -1 -11 -3z"/>
<path d="M3664 2979 c-3 -5 -1 -16 5 -23 6 -7 9 -15 6 -18 -3 -3 1 -11 10 -18
8 -7 15 -19 15 -26 0 -16 16 -19 25 -4 3 6 1 10 -4 10 -6 0 -14 18 -17 39 -6
39 -27 60 -40 40z"/>
<path d="M3717 2873 c-4 -3 -3 -11 1 -17 9 -11 45 -122 47 -141 0 -5 7 -30 14
-55 13 -44 17 -62 27 -109 3 -14 7 -28 9 -31 2 -4 7 -20 9 -36 3 -16 8 -40 12
-54 6 -27 11 -64 13 -93 1 -10 6 -15 11 -12 6 4 8 10 6 14 -6 9 -18 90 -21
141 -1 19 -5 49 -9 65 -23 98 -29 122 -34 135 -3 8 -6 17 -7 20 0 3 -9 30 -20
60 -11 30 -20 57 -20 60 -4 15 -25 60 -28 60 -2 0 -7 -3 -10 -7z"/>
<path d="M3853 2285 c0 -8 4 -12 9 -9 5 3 6 10 3 15 -9 13 -12 11 -12 -6z"/>
<path d="M3855 2250 c3 -5 8 -10 11 -10 2 0 4 5 4 10 0 6 -5 10 -11 10 -5 0
-7 -4 -4 -10z"/>
<path d="M3859 2219 c-1 -16 -1 -78 1 -129 1 -32 2 -34 15 -16 9 11 11 26 6
40 -4 11 -9 41 -10 66 -2 43 -10 68 -12 39z"/>
<path d="M3849 1968 c-2 -4 -7 -56 -13 -120 -5 -56 5 -77 19 -40 13 33 18 162
6 162 -6 0 -12 -1 -12 -2z"/>
<path d="M3466 1276 c-18 -28 -20 -36 -8 -36 10 0 35 50 29 57 -2 2 -12 -8
-21 -21z"/>
<path d="M3335 949 c-4 -6 -5 -12 -2 -15 2 -3 7 2 10 11 7 17 1 20 -8 4z"/>
<path d="M427 643 c-4 -3 -7 -111 -7 -240 l0 -233 190 0 190 0 0 24 c0 14 -5
28 -10 31 -6 3 -82 6 -170 6 l-160 0 0 52 c-1 29 -1 115 0 193 1 158 -6 194
-33 167z"/>
<path d="M3489 638 c-1 -7 -2 -98 -4 -203 -1 -104 -3 -193 -4 -197 0 -5 -75
-8 -166 -8 -102 0 -165 -4 -166 -10 -6 -47 -16 -45 184 -48 l187 -2 1 22 c4
125 0 438 -5 447 -10 15 -26 14 -27 -1z"/>
<path d="M2803 533 c-58 -32 -78 -53 -53 -53 6 0 10 5 10 10 0 6 3 9 8 8 12
-3 122 53 122 63 0 16 -23 9 -87 -28z"/>
<path d="M2470 310 c-21 -7 -21 -8 -5 -9 11 0 27 4 35 9 18 11 5 11 -30 0z"/>
<path d="M2380 290 c0 -13 30 -13 50 0 11 7 7 10 -17 10 -18 0 -33 -4 -33 -10z"/>
</g>
</svg>
